<mxfile host="app.diagrams.net" modified="2024-03-07T09:17:50.538Z" agent="Mozilla/5.0 (Windows NT 10.0; Win64; x64) AppleWebKit/537.36 (KHTML, like Gecko) Chrome/122.0.0.0 Safari/537.36 Edg/122.0.0.0" etag="rZF4o73I5_o6QZTTcnv9" version="24.0.2" type="device">
  <diagram name="Page-1" id="IL38ssH-_RWsgFlwf67Z">
    <mxGraphModel dx="1042" dy="535" grid="1" gridSize="10" guides="1" tooltips="1" connect="1" arrows="1" fold="1" page="1" pageScale="1" pageWidth="827" pageHeight="1169" math="0" shadow="0">
      <root>
        <mxCell id="0" />
        <mxCell id="1" parent="0" />
        <mxCell id="DZYRU_ofzJVjwE8KknH9-11" style="edgeStyle=orthogonalEdgeStyle;rounded=0;orthogonalLoop=1;jettySize=auto;html=1;curved=1;" parent="1" source="DZYRU_ofzJVjwE8KknH9-1" target="DZYRU_ofzJVjwE8KknH9-9" edge="1">
          <mxGeometry relative="1" as="geometry" />
        </mxCell>
        <mxCell id="DZYRU_ofzJVjwE8KknH9-12" style="edgeStyle=orthogonalEdgeStyle;rounded=0;orthogonalLoop=1;jettySize=auto;html=1;curved=1;" parent="1" source="DZYRU_ofzJVjwE8KknH9-1" target="DZYRU_ofzJVjwE8KknH9-10" edge="1">
          <mxGeometry relative="1" as="geometry" />
        </mxCell>
        <mxCell id="DZYRU_ofzJVjwE8KknH9-13" style="edgeStyle=orthogonalEdgeStyle;rounded=0;orthogonalLoop=1;jettySize=auto;html=1;" parent="1" source="DZYRU_ofzJVjwE8KknH9-1" target="DZYRU_ofzJVjwE8KknH9-3" edge="1">
          <mxGeometry relative="1" as="geometry" />
        </mxCell>
        <mxCell id="DZYRU_ofzJVjwE8KknH9-15" style="edgeStyle=orthogonalEdgeStyle;rounded=0;orthogonalLoop=1;jettySize=auto;html=1;curved=1;" parent="1" source="DZYRU_ofzJVjwE8KknH9-1" target="DZYRU_ofzJVjwE8KknH9-2" edge="1">
          <mxGeometry relative="1" as="geometry" />
        </mxCell>
        <mxCell id="bSlTgqxA7FIsEH5_ooCk-12" style="edgeStyle=orthogonalEdgeStyle;rounded=0;orthogonalLoop=1;jettySize=auto;html=1;curved=1;" parent="1" source="DZYRU_ofzJVjwE8KknH9-1" target="bSlTgqxA7FIsEH5_ooCk-2" edge="1">
          <mxGeometry relative="1" as="geometry" />
        </mxCell>
        <mxCell id="DZYRU_ofzJVjwE8KknH9-1" value="App" style="rounded=1;whiteSpace=wrap;html=1;" parent="1" vertex="1">
          <mxGeometry x="280" width="120" height="60" as="geometry" />
        </mxCell>
        <mxCell id="DZYRU_ofzJVjwE8KknH9-49" style="edgeStyle=orthogonalEdgeStyle;rounded=0;orthogonalLoop=1;jettySize=auto;html=1;curved=1;" parent="1" source="DZYRU_ofzJVjwE8KknH9-2" target="DZYRU_ofzJVjwE8KknH9-48" edge="1">
          <mxGeometry relative="1" as="geometry" />
        </mxCell>
        <mxCell id="DZYRU_ofzJVjwE8KknH9-2" value="Profile" style="rounded=1;whiteSpace=wrap;html=1;" parent="1" vertex="1">
          <mxGeometry x="620" y="30" width="120" height="60" as="geometry" />
        </mxCell>
        <mxCell id="DZYRU_ofzJVjwE8KknH9-16" style="edgeStyle=orthogonalEdgeStyle;rounded=0;orthogonalLoop=1;jettySize=auto;html=1;curved=1;" parent="1" source="DZYRU_ofzJVjwE8KknH9-3" target="DZYRU_ofzJVjwE8KknH9-5" edge="1">
          <mxGeometry relative="1" as="geometry" />
        </mxCell>
        <mxCell id="DZYRU_ofzJVjwE8KknH9-45" style="edgeStyle=orthogonalEdgeStyle;rounded=0;orthogonalLoop=1;jettySize=auto;html=1;curved=1;" parent="1" source="DZYRU_ofzJVjwE8KknH9-3" target="DZYRU_ofzJVjwE8KknH9-44" edge="1">
          <mxGeometry relative="1" as="geometry" />
        </mxCell>
        <mxCell id="DZYRU_ofzJVjwE8KknH9-3" value="PostBoard" style="rounded=1;whiteSpace=wrap;html=1;" parent="1" vertex="1">
          <mxGeometry x="280" y="170" width="120" height="60" as="geometry" />
        </mxCell>
        <mxCell id="DZYRU_ofzJVjwE8KknH9-20" style="edgeStyle=orthogonalEdgeStyle;rounded=0;orthogonalLoop=1;jettySize=auto;html=1;curved=1;" parent="1" source="DZYRU_ofzJVjwE8KknH9-5" target="DZYRU_ofzJVjwE8KknH9-6" edge="1">
          <mxGeometry relative="1" as="geometry" />
        </mxCell>
        <mxCell id="DZYRU_ofzJVjwE8KknH9-21" style="edgeStyle=orthogonalEdgeStyle;rounded=0;orthogonalLoop=1;jettySize=auto;html=1;curved=1;" parent="1" source="DZYRU_ofzJVjwE8KknH9-5" target="DZYRU_ofzJVjwE8KknH9-17" edge="1">
          <mxGeometry relative="1" as="geometry" />
        </mxCell>
        <mxCell id="DZYRU_ofzJVjwE8KknH9-22" style="edgeStyle=orthogonalEdgeStyle;rounded=0;orthogonalLoop=1;jettySize=auto;html=1;curved=1;" parent="1" source="DZYRU_ofzJVjwE8KknH9-5" target="DZYRU_ofzJVjwE8KknH9-18" edge="1">
          <mxGeometry relative="1" as="geometry" />
        </mxCell>
        <mxCell id="DZYRU_ofzJVjwE8KknH9-5" value="PostList" style="rounded=1;whiteSpace=wrap;html=1;" parent="1" vertex="1">
          <mxGeometry x="160" y="270" width="120" height="60" as="geometry" />
        </mxCell>
        <mxCell id="DZYRU_ofzJVjwE8KknH9-6" value="PostItem" style="rounded=1;whiteSpace=wrap;html=1;" parent="1" vertex="1">
          <mxGeometry x="160" y="470" width="120" height="60" as="geometry" />
        </mxCell>
        <mxCell id="DZYRU_ofzJVjwE8KknH9-9" value="Header" style="rounded=1;whiteSpace=wrap;html=1;" parent="1" vertex="1">
          <mxGeometry x="160" y="90" width="120" height="60" as="geometry" />
        </mxCell>
        <mxCell id="DZYRU_ofzJVjwE8KknH9-10" value="LeftMenu" style="rounded=1;whiteSpace=wrap;html=1;" parent="1" vertex="1">
          <mxGeometry x="50" y="170" width="120" height="60" as="geometry" />
        </mxCell>
        <mxCell id="DZYRU_ofzJVjwE8KknH9-17" value="PostItem" style="rounded=1;whiteSpace=wrap;html=1;" parent="1" vertex="1">
          <mxGeometry x="80" y="390" width="120" height="60" as="geometry" />
        </mxCell>
        <mxCell id="DZYRU_ofzJVjwE8KknH9-18" value="PostItem" style="rounded=1;whiteSpace=wrap;html=1;" parent="1" vertex="1">
          <mxGeometry x="240" y="390" width="120" height="60" as="geometry" />
        </mxCell>
        <mxCell id="DZYRU_ofzJVjwE8KknH9-24" style="edgeStyle=orthogonalEdgeStyle;rounded=0;orthogonalLoop=1;jettySize=auto;html=1;curved=1;" parent="1" source="DZYRU_ofzJVjwE8KknH9-6" target="DZYRU_ofzJVjwE8KknH9-25" edge="1">
          <mxGeometry relative="1" as="geometry">
            <mxPoint x="130" y="460" as="sourcePoint" />
          </mxGeometry>
        </mxCell>
        <mxCell id="DZYRU_ofzJVjwE8KknH9-31" style="edgeStyle=orthogonalEdgeStyle;rounded=0;orthogonalLoop=1;jettySize=auto;html=1;curved=1;" parent="1" source="DZYRU_ofzJVjwE8KknH9-25" target="DZYRU_ofzJVjwE8KknH9-30" edge="1">
          <mxGeometry relative="1" as="geometry" />
        </mxCell>
        <mxCell id="DZYRU_ofzJVjwE8KknH9-33" style="edgeStyle=orthogonalEdgeStyle;rounded=0;orthogonalLoop=1;jettySize=auto;html=1;" parent="1" source="DZYRU_ofzJVjwE8KknH9-25" target="DZYRU_ofzJVjwE8KknH9-32" edge="1">
          <mxGeometry relative="1" as="geometry" />
        </mxCell>
        <mxCell id="DZYRU_ofzJVjwE8KknH9-35" style="edgeStyle=orthogonalEdgeStyle;rounded=0;orthogonalLoop=1;jettySize=auto;html=1;curved=1;" parent="1" source="DZYRU_ofzJVjwE8KknH9-25" target="DZYRU_ofzJVjwE8KknH9-34" edge="1">
          <mxGeometry relative="1" as="geometry" />
        </mxCell>
        <mxCell id="abBk9I0mOZkUnG3DjKLd-2" style="edgeStyle=orthogonalEdgeStyle;rounded=0;orthogonalLoop=1;jettySize=auto;html=1;curved=1;" parent="1" source="DZYRU_ofzJVjwE8KknH9-25" target="DZYRU_ofzJVjwE8KknH9-46" edge="1">
          <mxGeometry relative="1" as="geometry" />
        </mxCell>
        <mxCell id="DZYRU_ofzJVjwE8KknH9-25" value="CommentList" style="rounded=1;whiteSpace=wrap;html=1;" parent="1" vertex="1">
          <mxGeometry x="80" y="570" width="120" height="60" as="geometry" />
        </mxCell>
        <mxCell id="DZYRU_ofzJVjwE8KknH9-30" value="CommentItem" style="rounded=1;whiteSpace=wrap;html=1;" parent="1" vertex="1">
          <mxGeometry y="740" width="120" height="60" as="geometry" />
        </mxCell>
        <mxCell id="DZYRU_ofzJVjwE8KknH9-32" value="CommentItem" style="rounded=1;whiteSpace=wrap;html=1;" parent="1" vertex="1">
          <mxGeometry x="80" y="820" width="120" height="60" as="geometry" />
        </mxCell>
        <mxCell id="DZYRU_ofzJVjwE8KknH9-34" value="CommentItem" style="rounded=1;whiteSpace=wrap;html=1;" parent="1" vertex="1">
          <mxGeometry x="160" y="740" width="120" height="60" as="geometry" />
        </mxCell>
        <mxCell id="DZYRU_ofzJVjwE8KknH9-44" value="CreatePost" style="rounded=1;whiteSpace=wrap;html=1;" parent="1" vertex="1">
          <mxGeometry x="340" y="280" width="120" height="60" as="geometry" />
        </mxCell>
        <mxCell id="DZYRU_ofzJVjwE8KknH9-46" value="CreateComment" style="rounded=1;whiteSpace=wrap;html=1;" parent="1" vertex="1">
          <mxGeometry x="240" y="640" width="120" height="60" as="geometry" />
        </mxCell>
        <mxCell id="DZYRU_ofzJVjwE8KknH9-48" value="AccountInfo" style="rounded=1;whiteSpace=wrap;html=1;" parent="1" vertex="1">
          <mxGeometry x="670" y="130" width="120" height="60" as="geometry" />
        </mxCell>
        <mxCell id="bSlTgqxA7FIsEH5_ooCk-2" value="PostPage" style="rounded=1;whiteSpace=wrap;html=1;" parent="1" vertex="1">
          <mxGeometry x="450" y="100" width="120" height="60" as="geometry" />
        </mxCell>
        <mxCell id="bSlTgqxA7FIsEH5_ooCk-3" style="edgeStyle=orthogonalEdgeStyle;rounded=0;orthogonalLoop=1;jettySize=auto;html=1;curved=1;" parent="1" source="bSlTgqxA7FIsEH5_ooCk-2" target="bSlTgqxA7FIsEH5_ooCk-7" edge="1">
          <mxGeometry relative="1" as="geometry">
            <mxPoint x="550" y="270" as="sourcePoint" />
          </mxGeometry>
        </mxCell>
        <mxCell id="bSlTgqxA7FIsEH5_ooCk-4" style="edgeStyle=orthogonalEdgeStyle;rounded=0;orthogonalLoop=1;jettySize=auto;html=1;curved=1;" parent="1" source="bSlTgqxA7FIsEH5_ooCk-7" target="bSlTgqxA7FIsEH5_ooCk-8" edge="1">
          <mxGeometry relative="1" as="geometry" />
        </mxCell>
        <mxCell id="bSlTgqxA7FIsEH5_ooCk-5" style="edgeStyle=orthogonalEdgeStyle;rounded=0;orthogonalLoop=1;jettySize=auto;html=1;curved=1;" parent="1" source="bSlTgqxA7FIsEH5_ooCk-7" target="bSlTgqxA7FIsEH5_ooCk-9" edge="1">
          <mxGeometry relative="1" as="geometry" />
        </mxCell>
        <mxCell id="bSlTgqxA7FIsEH5_ooCk-6" style="edgeStyle=orthogonalEdgeStyle;rounded=0;orthogonalLoop=1;jettySize=auto;html=1;curved=1;" parent="1" source="bSlTgqxA7FIsEH5_ooCk-7" target="bSlTgqxA7FIsEH5_ooCk-10" edge="1">
          <mxGeometry relative="1" as="geometry" />
        </mxCell>
        <mxCell id="vMbZbcdgEYIShFSlbBcF-1" style="edgeStyle=orthogonalEdgeStyle;rounded=0;orthogonalLoop=1;jettySize=auto;html=1;curved=1;entryX=0.5;entryY=0;entryDx=0;entryDy=0;" edge="1" parent="1" source="bSlTgqxA7FIsEH5_ooCk-7" target="bSlTgqxA7FIsEH5_ooCk-11">
          <mxGeometry relative="1" as="geometry" />
        </mxCell>
        <mxCell id="bSlTgqxA7FIsEH5_ooCk-7" value="CommentList" style="rounded=1;whiteSpace=wrap;html=1;" parent="1" vertex="1">
          <mxGeometry x="510" y="190" width="120" height="60" as="geometry" />
        </mxCell>
        <mxCell id="bSlTgqxA7FIsEH5_ooCk-8" value="CommentItem" style="rounded=1;whiteSpace=wrap;html=1;" parent="1" vertex="1">
          <mxGeometry x="460" y="370" width="120" height="60" as="geometry" />
        </mxCell>
        <mxCell id="bSlTgqxA7FIsEH5_ooCk-9" value="CommentItem" style="rounded=1;whiteSpace=wrap;html=1;" parent="1" vertex="1">
          <mxGeometry x="540" y="450" width="120" height="60" as="geometry" />
        </mxCell>
        <mxCell id="bSlTgqxA7FIsEH5_ooCk-10" value="CommentItem" style="rounded=1;whiteSpace=wrap;html=1;" parent="1" vertex="1">
          <mxGeometry x="620" y="370" width="120" height="60" as="geometry" />
        </mxCell>
        <mxCell id="bSlTgqxA7FIsEH5_ooCk-11" value="CreateComment" style="rounded=1;whiteSpace=wrap;html=1;" parent="1" vertex="1">
          <mxGeometry x="707" y="290" width="120" height="60" as="geometry" />
        </mxCell>
      </root>
    </mxGraphModel>
  </diagram>
</mxfile>
